<mxfile host="app.diagrams.net" modified="2023-08-01T08:30:05.931Z" agent="Mozilla/5.0 (Macintosh; Intel Mac OS X 10_15_7) AppleWebKit/537.36 (KHTML, like Gecko) Chrome/114.0.0.0 Safari/537.36" etag="oToTIf-2etMxNAJaNP_Y" version="21.6.6" type="github">
  <diagram name="Page-1" id="0zqgCbW0rX0MI4VsQGbm">
    <mxGraphModel dx="1242" dy="669" grid="1" gridSize="10" guides="1" tooltips="1" connect="1" arrows="1" fold="1" page="1" pageScale="1" pageWidth="850" pageHeight="1100" math="0" shadow="0">
      <root>
        <mxCell id="0" />
        <mxCell id="1" parent="0" />
        <mxCell id="ONRusG6VAs2xpoI3Q3ke-1" value="&lt;font face=&quot;Comic Sans MS&quot; style=&quot;font-size: 15px;&quot; color=&quot;#cc6600&quot;&gt;searchKeyWordViewModel&lt;/font&gt;" style="rounded=0;arcSize=10;whiteSpace=wrap;html=1;align=center;fillStyle=hachure;sketch=1;curveFitting=1;jiggle=2;fillColor=#ffe6cc;strokeColor=#d79b00;glass=0;shadow=0;strokeWidth=1;perimeterSpacing=2;" parent="1" vertex="1">
          <mxGeometry x="170" y="70" width="360" height="40" as="geometry" />
        </mxCell>
        <mxCell id="ONRusG6VAs2xpoI3Q3ke-18" value="" style="edgeStyle=orthogonalEdgeStyle;rounded=0;orthogonalLoop=1;jettySize=auto;html=1;strokeWidth=2;endArrow=open;endFill=0;startArrow=open;startFill=0;fillColor=#ffe6cc;strokeColor=#d79b00;" parent="1" source="ONRusG6VAs2xpoI3Q3ke-5" target="ONRusG6VAs2xpoI3Q3ke-1" edge="1">
          <mxGeometry relative="1" as="geometry">
            <Array as="points">
              <mxPoint x="145" y="90" />
            </Array>
          </mxGeometry>
        </mxCell>
        <mxCell id="ONRusG6VAs2xpoI3Q3ke-19" value="dataBinding / eventHandling" style="edgeLabel;html=1;align=center;verticalAlign=middle;resizable=0;points=[];fontColor=#CC6600;fontSize=14;" parent="ONRusG6VAs2xpoI3Q3ke-18" vertex="1" connectable="0">
          <mxGeometry x="-0.0478" relative="1" as="geometry">
            <mxPoint as="offset" />
          </mxGeometry>
        </mxCell>
        <mxCell id="ONRusG6VAs2xpoI3Q3ke-5" value="&lt;font face=&quot;Comic Sans MS&quot;&gt;CommonSearchInput&lt;/font&gt;" style="swimlane;whiteSpace=wrap;html=1;sketch=1;curveFitting=1;jiggle=2;rounded=1;fillColor=#e1d5e7;strokeColor=#9673a6;fillStyle=solid;" parent="1" vertex="1">
          <mxGeometry x="20" y="200" width="250" height="70" as="geometry" />
        </mxCell>
        <mxCell id="ONRusG6VAs2xpoI3Q3ke-15" value="" style="edgeStyle=orthogonalEdgeStyle;rounded=0;orthogonalLoop=1;jettySize=auto;html=1;startArrow=open;startFill=0;strokeWidth=2;endArrow=open;endFill=0;sourcePerimeterSpacing=0;targetPerimeterSpacing=0;endSize=6;startSize=6;fillColor=#ffe6cc;strokeColor=#d79b00;" parent="1" source="ONRusG6VAs2xpoI3Q3ke-6" target="ONRusG6VAs2xpoI3Q3ke-1" edge="1">
          <mxGeometry relative="1" as="geometry">
            <Array as="points">
              <mxPoint x="560" y="90" />
            </Array>
          </mxGeometry>
        </mxCell>
        <mxCell id="ONRusG6VAs2xpoI3Q3ke-16" value="dataBinding&amp;nbsp;" style="edgeLabel;html=1;align=center;verticalAlign=middle;resizable=0;points=[];fontSize=15;fontColor=#CC6600;" parent="ONRusG6VAs2xpoI3Q3ke-15" vertex="1" connectable="0">
          <mxGeometry x="-0.0187" relative="1" as="geometry">
            <mxPoint as="offset" />
          </mxGeometry>
        </mxCell>
        <mxCell id="ONRusG6VAs2xpoI3Q3ke-6" value="&lt;font face=&quot;Comic Sans MS&quot;&gt;CommonSearchResult&lt;/font&gt;" style="swimlane;whiteSpace=wrap;html=1;sketch=1;curveFitting=1;jiggle=2;fillColor=#80b0f5;strokeColor=#6c8ebf;fillStyle=solid;" parent="1" vertex="1">
          <mxGeometry x="310" y="200" width="500" height="190" as="geometry">
            <mxRectangle x="410" y="200" width="170" height="30" as="alternateBounds" />
          </mxGeometry>
        </mxCell>
        <mxCell id="ONRusG6VAs2xpoI3Q3ke-7" value="&lt;font style=&quot;font-size: 15px;&quot; face=&quot;Comic Sans MS&quot;&gt;FacetPanel&lt;/font&gt;" style="rounded=0;whiteSpace=wrap;html=1;fillColor=#f5f5f5;strokeColor=#666666;fillStyle=solid;fontColor=#333333;" parent="ONRusG6VAs2xpoI3Q3ke-6" vertex="1">
          <mxGeometry x="10" y="35" width="110" height="125" as="geometry" />
        </mxCell>
        <mxCell id="ONRusG6VAs2xpoI3Q3ke-8" value="&lt;font style=&quot;font-size: 15px;&quot; face=&quot;Comic Sans MS&quot;&gt;CommonSearchResultList&lt;/font&gt;" style="rounded=0;whiteSpace=wrap;html=1;fillStyle=solid;fillColor=#d5e8d4;strokeColor=#82b366;sketch=1;curveFitting=1;jiggle=2;strokeWidth=1;" parent="ONRusG6VAs2xpoI3Q3ke-6" vertex="1">
          <mxGeometry x="130" y="80" width="340" height="80" as="geometry" />
        </mxCell>
        <mxCell id="ONRusG6VAs2xpoI3Q3ke-9" value="&lt;font style=&quot;font-size: 14px;&quot; face=&quot;Comic Sans MS&quot;&gt;CommonSearchResultHeader&lt;/font&gt;" style="rounded=0;whiteSpace=wrap;html=1;fillStyle=solid;fillColor=#dae8fc;strokeColor=#6c8ebf;sketch=1;curveFitting=1;jiggle=2;strokeWidth=1;" parent="ONRusG6VAs2xpoI3Q3ke-6" vertex="1">
          <mxGeometry x="130" y="35" width="340" height="30" as="geometry" />
        </mxCell>
        <mxCell id="ONRusG6VAs2xpoI3Q3ke-30" style="edgeStyle=orthogonalEdgeStyle;rounded=0;orthogonalLoop=1;jettySize=auto;html=1;startArrow=open;startFill=0;endArrow=open;endFill=0;strokeWidth=2;fillColor=#d5e8d4;strokeColor=#82b366;entryX=0;entryY=0.5;entryDx=0;entryDy=0;" parent="ONRusG6VAs2xpoI3Q3ke-6" target="ONRusG6VAs2xpoI3Q3ke-29" edge="1">
          <mxGeometry relative="1" as="geometry">
            <mxPoint x="470" y="130" as="sourcePoint" />
            <mxPoint x="650" y="130" as="targetPoint" />
            <Array as="points" />
          </mxGeometry>
        </mxCell>
        <mxCell id="ONRusG6VAs2xpoI3Q3ke-31" value="&lt;font color=&quot;#76a35d&quot;&gt;dataBinding&lt;br&gt;eventHandling&lt;/font&gt;" style="edgeLabel;html=1;align=center;verticalAlign=middle;resizable=0;points=[];fontSize=14;" parent="ONRusG6VAs2xpoI3Q3ke-30" vertex="1" connectable="0">
          <mxGeometry x="-0.4701" relative="1" as="geometry">
            <mxPoint x="45" as="offset" />
          </mxGeometry>
        </mxCell>
        <mxCell id="ONRusG6VAs2xpoI3Q3ke-23" style="edgeStyle=orthogonalEdgeStyle;rounded=0;orthogonalLoop=1;jettySize=auto;html=1;entryX=0.5;entryY=1;entryDx=0;entryDy=0;startArrow=open;startFill=0;strokeWidth=2;fillColor=#e1d5e7;strokeColor=#9673a6;endArrow=open;endFill=0;" parent="1" source="ONRusG6VAs2xpoI3Q3ke-22" target="ONRusG6VAs2xpoI3Q3ke-5" edge="1">
          <mxGeometry relative="1" as="geometry" />
        </mxCell>
        <mxCell id="ONRusG6VAs2xpoI3Q3ke-24" value="dataBinding / eventHandling" style="edgeLabel;html=1;align=center;verticalAlign=middle;resizable=0;points=[];fontSize=14;fontColor=#B5739D;" parent="ONRusG6VAs2xpoI3Q3ke-23" vertex="1" connectable="0">
          <mxGeometry x="0.0346" y="1" relative="1" as="geometry">
            <mxPoint as="offset" />
          </mxGeometry>
        </mxCell>
        <mxCell id="ONRusG6VAs2xpoI3Q3ke-22" value="&lt;font color=&quot;#b5739d&quot; face=&quot;Comic Sans MS&quot; style=&quot;font-size: 15px;&quot;&gt;searchInputViewModel&lt;/font&gt;" style="rounded=0;arcSize=10;whiteSpace=wrap;html=1;align=center;fillStyle=hachure;sketch=1;curveFitting=1;jiggle=2;fillColor=#F6E9FC;strokeColor=#9673a6;glass=0;shadow=0;gradientColor=none;" parent="1" vertex="1">
          <mxGeometry x="20" y="350" width="250" height="40" as="geometry" />
        </mxCell>
        <mxCell id="ONRusG6VAs2xpoI3Q3ke-25" value="&lt;font color=&quot;#617fab&quot; face=&quot;Comic Sans MS&quot; style=&quot;font-size: 15px;&quot;&gt;searchInputViewModel&lt;/font&gt;" style="rounded=0;arcSize=10;whiteSpace=wrap;html=1;align=center;fillStyle=hachure;sketch=1;curveFitting=1;jiggle=2;fillColor=#dae8fc;strokeColor=#617FAB;glass=0;shadow=0;" parent="1" vertex="1">
          <mxGeometry x="950" y="230" width="250" height="40" as="geometry" />
        </mxCell>
        <mxCell id="ONRusG6VAs2xpoI3Q3ke-29" value="&lt;font color=&quot;#76a35d&quot; face=&quot;Comic Sans MS&quot; style=&quot;font-size: 15px;&quot;&gt;searchResultViewModel&lt;/font&gt;" style="rounded=0;arcSize=10;whiteSpace=wrap;html=1;align=center;fillStyle=hachure;sketch=1;curveFitting=1;jiggle=2;fillColor=#d5e8d4;strokeColor=#82b366;glass=0;shadow=0;" parent="1" vertex="1">
          <mxGeometry x="950" y="310" width="250" height="40" as="geometry" />
        </mxCell>
        <mxCell id="ONRusG6VAs2xpoI3Q3ke-26" style="edgeStyle=orthogonalEdgeStyle;rounded=0;orthogonalLoop=1;jettySize=auto;html=1;exitX=1;exitY=0.5;exitDx=0;exitDy=0;startArrow=open;startFill=0;strokeWidth=2;strokeColor=#617FAB;endArrow=open;endFill=0;" parent="1" target="ONRusG6VAs2xpoI3Q3ke-25" edge="1">
          <mxGeometry relative="1" as="geometry">
            <mxPoint x="780" y="244.5" as="sourcePoint" />
            <mxPoint x="1140" y="495" as="targetPoint" />
            <Array as="points">
              <mxPoint x="880" y="245" />
              <mxPoint x="1175" y="245" />
            </Array>
          </mxGeometry>
        </mxCell>
        <mxCell id="ONRusG6VAs2xpoI3Q3ke-28" value="&lt;font color=&quot;#617fab&quot;&gt;dataBinding&amp;nbsp;&lt;br&gt;&amp;nbsp;eventHandling&lt;/font&gt;" style="edgeLabel;html=1;align=center;verticalAlign=middle;resizable=0;points=[];fontSize=14;" parent="ONRusG6VAs2xpoI3Q3ke-26" vertex="1" connectable="0">
          <mxGeometry x="-0.0399" y="-3" relative="1" as="geometry">
            <mxPoint x="8" y="-7" as="offset" />
          </mxGeometry>
        </mxCell>
        <mxCell id="ONRusG6VAs2xpoI3Q3ke-32" value="&lt;font color=&quot;#999999&quot; style=&quot;font-size: 15px;&quot; face=&quot;Comic Sans MS&quot;&gt;facetFiltersViewModel&lt;/font&gt;" style="rounded=0;arcSize=10;whiteSpace=wrap;html=1;align=center;fillStyle=hachure;sketch=1;curveFitting=1;jiggle=2;fillColor=#f5f5f5;strokeColor=#666666;glass=0;shadow=0;fontColor=#333333;" parent="1" vertex="1">
          <mxGeometry x="300" y="450" width="190" height="40" as="geometry" />
        </mxCell>
        <mxCell id="ONRusG6VAs2xpoI3Q3ke-33" style="edgeStyle=orthogonalEdgeStyle;rounded=0;orthogonalLoop=1;jettySize=auto;html=1;exitX=0.5;exitY=1;exitDx=0;exitDy=0;entryX=0.395;entryY=0;entryDx=0;entryDy=0;entryPerimeter=0;startArrow=open;startFill=0;endArrow=open;endFill=0;strokeWidth=2;fillColor=#f5f5f5;strokeColor=#666666;" parent="1" source="ONRusG6VAs2xpoI3Q3ke-7" target="ONRusG6VAs2xpoI3Q3ke-32" edge="1">
          <mxGeometry relative="1" as="geometry" />
        </mxCell>
        <mxCell id="ONRusG6VAs2xpoI3Q3ke-34" value="dataBinding / eventHandling" style="edgeLabel;html=1;align=center;verticalAlign=middle;resizable=0;points=[];fontSize=14;fontColor=#999999;" parent="ONRusG6VAs2xpoI3Q3ke-33" vertex="1" connectable="0">
          <mxGeometry x="-0.1613" y="-2" relative="1" as="geometry">
            <mxPoint x="2" y="17" as="offset" />
          </mxGeometry>
        </mxCell>
        <mxCell id="ONRusG6VAs2xpoI3Q3ke-36" style="edgeStyle=orthogonalEdgeStyle;rounded=0;orthogonalLoop=1;jettySize=auto;html=1;strokeWidth=2;startArrow=open;startFill=0;endArrow=open;endFill=0;strokeColor=#0074C2;" parent="1" source="ONRusG6VAs2xpoI3Q3ke-35" edge="1">
          <mxGeometry relative="1" as="geometry">
            <mxPoint x="554" y="390" as="targetPoint" />
            <Array as="points">
              <mxPoint x="554" y="550" />
              <mxPoint x="554" y="550" />
            </Array>
          </mxGeometry>
        </mxCell>
        <mxCell id="ONRusG6VAs2xpoI3Q3ke-37" value="dataBinding / eventHandling" style="edgeLabel;html=1;align=center;verticalAlign=middle;resizable=0;points=[];fontSize=15;fontColor=#0074C2;" parent="ONRusG6VAs2xpoI3Q3ke-36" vertex="1" connectable="0">
          <mxGeometry x="-0.3888" relative="1" as="geometry">
            <mxPoint x="1" y="30" as="offset" />
          </mxGeometry>
        </mxCell>
        <mxCell id="ONRusG6VAs2xpoI3Q3ke-35" value="&lt;font style=&quot;font-size: 17px;&quot; face=&quot;Comic Sans MS&quot; color=&quot;#0074c2&quot;&gt;searchConfigViewModel&lt;/font&gt;" style="rounded=0;arcSize=10;whiteSpace=wrap;html=1;align=center;fillStyle=hachure;sketch=1;curveFitting=1;jiggle=2;fillColor=#0093F5;strokeColor=#6c8ebf;glass=0;shadow=0;" parent="1" vertex="1">
          <mxGeometry x="300" y="560" width="510" height="40" as="geometry" />
        </mxCell>
      </root>
    </mxGraphModel>
  </diagram>
</mxfile>
